# xmcd
#
# Track frame offsets:
#	150
#	10544
#	19776
#	37015
#	51984
#	63834
#	76732
#	82418
#	95588
#	111644
#	124828
#	145825
#	155259
#	168306
#	182565
#	194252
#	207322
#	220553
#	233660
#	244843
#
# Disc length: 3459 seconds
#
# Revision: 0
# Processed by: cddbd v1.5.1PL0 Copyright (c) Steve Scherf et al.
# Submitted via: audiograbber 1.83.01
#
DISCID=0e0d8114
DTITLE=Various Artist - Volani taboroveho ohne - CD4 - V pasu koleji
DYEAR=2001
DGENRE=Country
TTITLE0=Jaroslav Samsong Lenk and Parta - Zimni
TTITLE1=Spojene osady Brno - Madera
TTITLE2=Pacifik - Poraneny koleno
TTITLE3=Kamelot - Demanty
TTITLE4=Zlaty orel - Taborak vola
TTITLE5=Kamelot and Lampa - Velikej kamarad
TTITLE6=Zalman and spol. - Pisen posledniho vagonu
TTITLE7=Spojene osady Brno - Oslavske boudy
TTITLE8=Spojene osady Praha - Letokruhy
TTITLE9=Ozvena - Nadrazi
TTITLE10=Zalman and spol. - Vsech vandraku muza
TTITLE11=Spojene osady Praha - Ruty-suty Arizona, Texas
TTITLE12=Karabina - Tak ahoj
TTITLE13=Vojta Klidak Tomasko - Hvezdopad
TTITLE14=Spojene osady Brno - Mexicka svatba
TTITLE15=Spojene osady Praha - Quantanamo
TTITLE16=T.E.Band - Chadny klic
TTITLE17=Wabi a Miki Ryvolove - Tak uz mi ma holka mava
TTITLE18=Hop Trop - Amazonka
TTITLE19=Spojene osady Brno - Osadou zni stara pisen
EXTD=
EXTT0=
EXTT1=
EXTT2=
EXTT3=
EXTT4=
EXTT5=
EXTT6=
EXTT7=
EXTT8=
EXTT9=
EXTT10=
EXTT11=
EXTT12=
EXTT13=
EXTT14=
EXTT15=
EXTT16=
EXTT17=
EXTT18=
EXTT19=
PLAYORDER=
